<?xml version="1.0" standalone="no"?>
<!DOCTYPE svg PUBLIC "-//W3C//DTD SVG 20010904//EN"
 "http://www.w3.org/TR/2001/REC-SVG-20010904/DTD/svg10.dtd">
<svg version="1.0" xmlns="http://www.w3.org/2000/svg"
 width="246.000000pt" height="246.000000pt" viewBox="0 0 246.000000 246.000000"
 preserveAspectRatio="xMidYMid meet">
<metadata>
Created by potrace 1.11, written by Peter Selinger 2001-2013
</metadata>
<g transform="translate(0.000000,246.000000) scale(0.100000,-0.100000)"
fill="#000000" stroke="none">
<path d="M0 1230 l0 -1230 1230 0 1230 0 0 1230 0 1230 -1230 0 -1230 0 0
-1230z m1020 304 c25 -4 90 -7 145 -8 l100 -1 0 -40 0 -40 -68 -3 -67 -3 15
-29 c19 -37 19 -113 1 -148 -36 -69 -107 -104 -203 -101 -67 2 -102 -14 -90
-44 4 -11 35 -15 144 -19 144 -5 178 -14 217 -57 29 -32 31 -98 4 -151 -44
-85 -186 -127 -370 -108 -105 10 -148 46 -148 123 0 50 22 67 83 63 l51 -3 0
-40 c1 -54 28 -68 122 -61 105 6 144 31 144 91 0 42 -22 49 -168 50 -152 1
-177 8 -191 60 -10 36 10 92 41 116 l21 16 -29 38 c-26 35 -29 46 -29 115 0
68 3 80 28 113 15 20 42 45 60 54 34 18 101 32 127 27 8 -1 35 -6 60 -10z
m621 -11 c31 -13 46 -29 66 -74 6 -13 -39 -59 -58 -59 -11 0 -30 11 -42 25
-29 34 -74 45 -117 31 -28 -9 -36 -17 -38 -39 -5 -40 11 -54 92 -78 95 -28
123 -44 146 -82 42 -68 15 -157 -59 -201 -64 -37 -250 -32 -305 9 -20 15 -18
45 7 79 14 19 15 19 65 -2 89 -39 182 -22 182 32 0 32 -26 52 -95 71 -33 10
-77 26 -98 37 -93 47 -84 192 16 245 64 33 167 36 238 6z"/>
<path d="M913 1445 c-25 -11 -34 -23 -43 -56 -23 -86 11 -149 82 -149 59 0 88
34 88 104 0 43 -5 60 -22 79 -29 32 -65 39 -105 22z"/>
</g>
</svg>
